<?xml version="1.0" encoding="UTF-8" standalone="no"?>
<svg
   xmlns:dc="http://purl.org/dc/elements/1.1/"
   xmlns:cc="http://creativecommons.org/ns#"
   xmlns:rdf="http://www.w3.org/1999/02/22-rdf-syntax-ns#"
   xmlns:svg="http://www.w3.org/2000/svg"
   xmlns="http://www.w3.org/2000/svg"
   width="2.5311527in"
   height="0.94213885in"
   viewBox="0 0 64.291279 23.930327"
   version="1.1"
   id="svg1229">
  <defs
     id="defs1223">
    <clipPath
       clipPathUnits="userSpaceOnUse"
       id="clipPath172">
      <path
         d="M 0,0 H 792 V 612 H 0 Z"
         id="path170" />
    </clipPath>
    <clipPath
       clipPathUnits="userSpaceOnUse"
       id="clipPath200">
      <path
         d="M 0,0 H 792 V 612 H 0 Z"
         id="path198" />
    </clipPath>
    <clipPath
       clipPathUnits="userSpaceOnUse"
       id="clipPath224">
      <path
         d="M 0,0 H 792 V 612 H 0 Z"
         id="path222" />
    </clipPath>
    <clipPath
       clipPathUnits="userSpaceOnUse"
       id="clipPath248">
      <path
         d="M 0,0 H 792 V 612 H 0 Z"
         id="path246" />
    </clipPath>
    <clipPath
       clipPathUnits="userSpaceOnUse"
       id="clipPath268">
      <path
         d="M 0,0 H 792 V 612 H 0 Z"
         id="path266" />
    </clipPath>
    <clipPath
       clipPathUnits="userSpaceOnUse"
       id="clipPath288">
      <path
         d="M 0,0 H 792 V 612 H 0 Z"
         id="path286" />
    </clipPath>
    <clipPath
       clipPathUnits="userSpaceOnUse"
       id="clipPath308">
      <path
         d="M 0,0 H 792 V 612 H 0 Z"
         id="path306" />
    </clipPath>
  </defs>
  <metadata
     id="metadata1226">
    <rdf:RDF>
      <cc:Work
         rdf:about="">
        <dc:format>image/svg+xml</dc:format>
        <dc:type
           rdf:resource="http://purl.org/dc/dcmitype/StillImage" />
        <dc:title></dc:title>
      </cc:Work>
    </rdf:RDF>
  </metadata>
  <g
     id="layer1"
     transform="translate(-71.825727,-8.5938028)">
    <g
       id="g1123"
       transform="matrix(0.35277777,0,0,-0.35277777,36.149664,135.5938)">
      <path
         d="M 283.372,292.166 H 101.129 V 360 h 182.243 z"
         style="fill:#ffffff;fill-opacity:1;fill-rule:nonzero;stroke:none"
         id="path164" />
      <g
         id="g166">
        <g
           id="g168"
           clip-path="url(#clipPath172)">
          <g
             id="g174"
             transform="translate(173.1753,319.1396)">
            <path
               d="m 0,0 c 0,-5.745 -4.627,-10.263 -10.545,-10.263 -5.918,0 -10.544,4.518 -10.544,10.263 0,5.771 4.626,10.367 10.544,10.367 C -4.627,10.367 0,5.771 0,0 m -3.685,0 c 0,3.995 -3.013,7.024 -6.86,7.024 -3.846,0 -6.859,-3.029 -6.859,-7.024 0,-3.995 3.013,-6.946 6.859,-6.946 3.847,0 6.86,2.95 6.86,6.946"
               style="fill:#00ace2;fill-opacity:1;fill-rule:nonzero;stroke:none"
               id="path176" />
          </g>
          <g
             id="g178"
             transform="translate(189.0894,315.771)">
            <path
               d="m 0,0 c 0,-4.099 -3.174,-6.894 -6.591,-6.894 -1.829,0 -3.308,0.523 -4.438,1.41 v -8.329 H -14.58 V 6.528 h 3.552 V 5.484 C -9.898,6.397 -8.419,6.92 -6.59,6.92 -3.174,6.92 0,4.1 0,0 m -3.443,0 c 0,2.402 -1.614,3.917 -3.766,3.917 -1.91,0 -3.82,-1.515 -3.82,-3.917 0,-2.402 1.91,-3.889 3.82,-3.889 2.152,-0.002 3.766,1.486 3.766,3.889"
               style="fill:#00ace2;fill-opacity:1;fill-rule:nonzero;stroke:none"
               id="path180" />
          </g>
          <g
             id="g182"
             transform="translate(203.958,314.8574)">
            <path
               d="m 0,0 h -10.222 c 0.349,-1.88 1.721,-3.029 3.362,-3.029 1.049,0 2.367,0.131 3.336,1.723 l 3.174,-0.652 c -1.183,-2.716 -3.577,-4.022 -6.51,-4.022 -3.793,0 -6.887,2.794 -6.887,6.894 0,4.099 3.094,6.918 6.94,6.918 3.578,0 6.671,-2.689 6.806,-6.659 z m -10.115,2.429 h 6.485 c -0.457,1.671 -1.749,2.402 -3.174,2.402 -1.347,0 -2.88,-0.784 -3.311,-2.402"
               style="fill:#00ace2;fill-opacity:1;fill-rule:nonzero;stroke:none"
               id="path184" />
          </g>
          <g
             id="g186"
             transform="translate(218.446,317.2075)">
            <path
               d="m 0,0 v -7.938 h -3.551 v 7.207 c 0,1.827 -1.076,3.055 -2.717,3.055 -2.017,0 -3.335,-1.306 -3.335,-4.492 v -5.77 h -3.551 v 13.03 h 3.55 V 3.917 c 1.049,1.018 2.447,1.566 4.223,1.566 C -2.152,5.483 0,3.238 0,0"
               style="fill:#00ace2;fill-opacity:1;fill-rule:nonzero;stroke:none"
               id="path188" />
          </g>
        </g>
      </g>
      <g
         id="g190"
         transform="translate(240.2834,309.269)">
        <path
           d="M 0,0 H -2.851 L -7.854,12.874 -12.885,0 h -2.824 l -6.699,19.846 h 3.82 l 4.492,-13.109 5.138,13.109 h 2.179 L -1.641,6.737 2.851,19.846 h 3.846 z"
           style="fill:#00ace2;fill-opacity:1;fill-rule:nonzero;stroke:none"
           id="path192" />
      </g>
      <g
         id="g194">
        <g
           id="g196"
           clip-path="url(#clipPath200)">
          <g
             id="g202"
             transform="translate(255.7183,322.3774)">
            <path
               d="m 0,0 -0.188,-3.316 h -0.78 c -3.282,0 -4.789,-1.959 -4.789,-5.588 v -4.204 h -3.551 v 13.03 h 3.551 V -2.35 c 0.996,1.515 2.556,2.454 4.816,2.454 0.349,0 0.618,0 0.941,-0.104"
               style="fill:#00ace2;fill-opacity:1;fill-rule:nonzero;stroke:none"
               id="path204" />
          </g>
          <g
             id="g206"
             transform="translate(263.2698,314.0737)">
            <path
               d="m 0,0 c 0,-1.279 0.619,-1.985 1.695,-1.985 0.618,0 1.533,0.262 2.234,0.627 L 4.952,-4.23 C 3.553,-4.961 2.584,-5.197 1.455,-5.197 c -3.201,0 -5.004,1.776 -5.004,4.937 v 5.665 h -2.879 v 2.821 h 2.879 v 4.726 l 3.55,1.045 V 8.226 H 5.193 V 5.405 H 0 Z"
               style="fill:#00ace2;fill-opacity:1;fill-rule:nonzero;stroke:none"
               id="path208" />
          </g>
        </g>
      </g>
      <g
         id="g210"
         transform="translate(186.124,302.0308)">
        <path
           d="M 0,0 H -0.799 L -1.549,2 -2.304,0 H -3.1 l -1.224,3.689 h 1.02 l 0.635,-1.99 0.795,1.99 h 0.65 l 0.79,-1.99 0.64,1.99 h 1.02 z"
           style="fill:#002843;fill-opacity:1;fill-rule:nonzero;stroke:none"
           id="path212" />
      </g>
      <g
         id="g214"
         transform="translate(191.1555,302.8315)">
        <path
           d="m 0,0 h 0.785 v -0.801 h -2.53 V 0 h 0.785 v 2.083 h -0.785 v 0.805 h 2.53 V 2.083 H 0 Z"
           style="fill:#002843;fill-opacity:1;fill-rule:nonzero;stroke:none"
           id="path216" />
      </g>
      <g
         id="g218">
        <g
           id="g220"
           clip-path="url(#clipPath224)">
          <g
             id="g226"
             transform="translate(196.9004,302.0308)">
            <path
               d="M 0,0 -0.7,0.801 H -1.449 V 0 H -2.41 v 3.689 h 1.771 c 1,0 1.605,-0.573 1.605,-1.427 0,-0.549 -0.255,-0.991 -0.695,-1.238 L 1.206,0 Z m -0.675,1.602 c 0.4,0 0.73,0.262 0.73,0.66 0,0.388 -0.33,0.628 -0.73,0.628 H -1.449 V 1.604 Z"
               style="fill:#002843;fill-opacity:1;fill-rule:nonzero;stroke:none"
               id="path228" />
          </g>
        </g>
      </g>
      <g
         id="g230"
         transform="translate(202.9875,302.0308)">
        <path
           d="m 0,0 h -2.9 v 3.689 h 2.87 V 2.888 H -1.94 V 2.257 h 1.88 V 1.456 H -1.94 V 0.801 h 1.941 z"
           style="fill:#002843;fill-opacity:1;fill-rule:nonzero;stroke:none"
           id="path232" />
      </g>
      <g
         id="g234"
         transform="translate(208.3423,302.0308)">
        <path
           d="m 0,0 h -2.805 v 3.689 h 0.96 V 0.801 H 0 Z"
           style="fill:#002843;fill-opacity:1;fill-rule:nonzero;stroke:none"
           id="path236" />
      </g>
      <g
         id="g238"
         transform="translate(213.7788,302.0308)">
        <path
           d="m 0,0 h -2.9 v 3.689 h 2.87 V 2.888 H -1.94 V 2.257 h 1.88 V 1.456 H -1.94 V 0.801 H 0 Z"
           style="fill:#002843;fill-opacity:1;fill-rule:nonzero;stroke:none"
           id="path240" />
      </g>
      <g
         id="g242">
        <g
           id="g244"
           clip-path="url(#clipPath248)">
          <g
             id="g250"
             transform="translate(219.3787,304.7295)">
            <path
               d="m 0,0 -0.94,-0.185 c -0.08,0.374 -0.34,0.481 -0.565,0.481 -0.225,0 -0.41,-0.111 -0.41,-0.316 0,-0.146 0.08,-0.238 0.245,-0.286 l 0.74,-0.228 c 0.625,-0.199 0.965,-0.481 0.965,-1.058 0,-0.83 -0.75,-1.18 -1.495,-1.18 -0.825,0 -1.495,0.422 -1.59,1.126 l 0.985,0.194 c 0.08,-0.364 0.304,-0.519 0.635,-0.519 0.28,0 0.45,0.126 0.45,0.321 0,0.145 -0.08,0.247 -0.29,0.3 l -0.705,0.199 c -0.575,0.16 -0.965,0.447 -0.965,1.044 0,0.752 0.609,1.165 1.44,1.165 0.79,0 1.375,-0.369 1.5,-1.058"
               style="fill:#002843;fill-opacity:1;fill-rule:nonzero;stroke:none"
               id="path252" />
          </g>
          <g
             id="g254"
             transform="translate(224.4026,304.7295)">
            <path
               d="m 0,0 -0.94,-0.185 c -0.08,0.374 -0.34,0.481 -0.565,0.481 -0.225,0 -0.41,-0.111 -0.41,-0.316 0,-0.146 0.08,-0.238 0.245,-0.286 l 0.74,-0.228 c 0.625,-0.199 0.965,-0.481 0.965,-1.058 0,-0.83 -0.75,-1.18 -1.495,-1.18 -0.825,0 -1.495,0.422 -1.591,1.126 l 0.986,0.194 c 0.08,-0.364 0.304,-0.519 0.635,-0.519 0.28,0 0.45,0.126 0.45,0.321 0,0.145 -0.08,0.247 -0.29,0.3 l -0.705,0.2 c -0.575,0.16 -0.965,0.446 -0.965,1.044 0,0.752 0.608,1.165 1.44,1.165 C -0.71,1.058 -0.125,0.689 0,0"
               style="fill:#002843;fill-opacity:1;fill-rule:nonzero;stroke:none"
               id="path256" />
          </g>
        </g>
      </g>
      <g
         id="g258"
         transform="translate(231.3547,304.2881)">
        <path
           d="M 0,0 H 1.785 V -0.801 H 0 V -2.257 H -0.96 V 1.432 H 1.915 V 0.631 H 0 Z"
           style="fill:#002843;fill-opacity:1;fill-rule:nonzero;stroke:none"
           id="path260" />
      </g>
      <g
         id="g262">
        <g
           id="g264"
           clip-path="url(#clipPath268)">
          <g
             id="g270"
             transform="translate(238.2297,302.0308)">
            <path
               d="M 0,0 -0.7,0.801 H -1.45 V 0 h -0.96 v 3.689 h 1.77 c 1,0 1.605,-0.573 1.605,-1.427 C 0.965,1.713 0.71,1.271 0.27,1.024 L 1.205,0 Z m -0.675,1.602 c 0.4,0 0.73,0.262 0.73,0.66 0,0.388 -0.33,0.628 -0.73,0.628 H -1.45 V 1.604 Z"
               style="fill:#002843;fill-opacity:1;fill-rule:nonzero;stroke:none"
               id="path272" />
          </g>
        </g>
      </g>
      <g
         id="g274"
         transform="translate(244.3171,302.0308)">
        <path
           d="m 0,0 h -2.9 v 3.689 h 2.87 V 2.888 H -1.94 V 2.257 h 1.88 V 1.456 H -1.94 V 0.801 H 0 Z"
           style="fill:#002843;fill-opacity:1;fill-rule:nonzero;stroke:none"
           id="path276" />
      </g>
      <g
         id="g278"
         transform="translate(249.7668,302.0308)">
        <path
           d="m 0,0 h -2.9 v 3.689 h 2.87 V 2.888 H -1.94 V 2.257 h 1.88 V 1.456 H -1.94 V 0.801 h 1.941 z"
           style="fill:#002843;fill-opacity:1;fill-rule:nonzero;stroke:none"
           id="path280" />
      </g>
      <g
         id="g282">
        <g
           id="g284"
           clip-path="url(#clipPath288)">
          <g
             id="g290"
             transform="translate(254.0122,305.7197)">
            <path
               d="M 0,0 C 1.21,0 2.01,-0.739 2.01,-1.844 2.01,-2.95 1.211,-3.689 0,-3.689 H -1.695 V 0 Z m -0.01,-2.888 c 0.655,0 1.055,0.417 1.055,1.044 0,0.626 -0.4,1.043 -1.055,1.043 h -0.723 v -2.087 z"
               style="fill:#002843;fill-opacity:1;fill-rule:nonzero;stroke:none"
               id="path292" />
          </g>
          <g
             id="g294"
             transform="translate(262.0693,303.8706)">
            <path
               d="m 0,0 c 0,-1.078 -0.91,-1.913 -2.03,-1.913 -1.12,0 -2.035,0.835 -2.035,1.913 0,1.077 0.91,1.917 2.035,1.917 C -0.905,1.917 0,1.073 0,0 m -0.965,0 c 0,0.606 -0.47,1.077 -1.066,1.077 -0.595,0 -1.065,-0.471 -1.065,-1.077 0,-0.607 0.47,-1.078 1.065,-1.078 0.596,0 1.066,0.466 1.066,1.078"
               style="fill:#002843;fill-opacity:1;fill-rule:nonzero;stroke:none"
               id="path296" />
          </g>
        </g>
      </g>
      <g
         id="g298"
         transform="translate(268.4617,302.0308)">
        <path
           d="M 0,0 H -0.94 V 1.752 L -2.06,0.256 H -2.35 L -3.47,1.75 v -1.751 h -0.94 v 3.689 h 0.615 l 1.59,-2.17 1.59,2.17 H 0 Z"
           style="fill:#002843;fill-opacity:1;fill-rule:nonzero;stroke:none"
           id="path300" />
      </g>
      <g
         id="g302">
        <g
           id="g304"
           clip-path="url(#clipPath308)">
          <g
             id="g310"
             transform="translate(271.6895,328.4058)">
            <path
               d="M 0,0 -0.99,1.042 H -1.398 V 0 h -0.455 v 2.468 h 0.95 c 0.533,0 0.856,-0.296 0.856,-0.712 0.008,-0.283 -0.169,-0.54 -0.441,-0.642 L 0.569,0 Z m -0.903,1.441 c 0.267,0 0.405,0.137 0.405,0.315 0,0.179 -0.141,0.311 -0.405,0.311 H -1.398 V 1.44 Z"
               style="fill:#00ace2;fill-opacity:1;fill-rule:nonzero;stroke:none"
               id="path312" />
          </g>
          <g
             id="g314"
             transform="translate(270.8284,327.209)">
            <path
               d="m 0,0 c -1.307,0 -2.366,1.028 -2.367,2.296 0,1.269 1.059,2.298 2.366,2.298 1.307,0 2.366,-1.028 2.367,-2.296 V 2.297 C 2.365,1.029 1.306,0.002 0,0 m 0,4.269 c -1.122,0 -2.031,-0.883 -2.031,-1.972 0,-1.089 0.909,-1.971 2.031,-1.971 1.122,0 2.031,0.882 2.031,1.971 C 2.03,3.386 1.121,4.268 0,4.269 Z"
               style="fill:#00ace2;fill-opacity:1;fill-rule:nonzero;stroke:none"
               id="path316" />
          </g>
          <g
             id="g318"
             transform="translate(130.3613,326.9673)">
            <path
               d="m 0,0 c -1.713,0 -3.102,-1.348 -3.102,-3.011 0,-1.663 1.389,-3.011 3.102,-3.011 1.713,0 3.102,1.348 3.102,3.011 C 3.099,-1.35 1.712,-0.003 0,0"
               style="fill:#00ace2;fill-opacity:1;fill-rule:nonzero;stroke:none"
               id="path320" />
          </g>
          <g
             id="g322"
             transform="translate(111.3059,342.4536)">
            <path
               d="m 0,0 3.229,-3.134 c 4.051,3.933 9.653,6.36 15.826,6.36 6.174,0 11.776,-2.428 15.827,-6.36 L 38.111,0 C 33.236,4.732 26.494,7.682 19.055,7.682 11.617,7.682 4.875,4.732 0,0"
               style="fill:#00ace2;fill-opacity:1;fill-rule:nonzero;stroke:none"
               id="path324" />
          </g>
          <g
             id="g326"
             transform="translate(117.1301,336.7998)">
            <path
               d="m 0,0 3.229,-3.134 c 2.564,2.488 6.109,4.025 10.001,4.025 3.892,0 7.44,-1.537 10.004,-4.025 L 26.463,0 C 23.076,3.288 18.391,5.348 13.232,5.348 8.072,5.348 3.388,3.289 0,0"
               style="fill:#00ace2;fill-opacity:1;fill-rule:nonzero;stroke:none"
               id="path328" />
          </g>
          <g
             id="g330"
             transform="translate(122.9229,331.1763)">
            <path
               d="m 0,0 3.229,-3.134 c 2.326,2.253 6.093,2.253 8.419,0 L 14.877,0 C 12.905,1.915 10.228,2.988 7.438,2.98 4.558,2.98 1.93,1.844 0,0"
               style="fill:#00ace2;fill-opacity:1;fill-rule:nonzero;stroke:none"
               id="path332" />
          </g>
          <g
             id="g334"
             transform="translate(141.8201,332.0371)">
            <path
               d="m 0,0 c 1.709,-2.274 2.722,-5.07 2.722,-8.081 0,-7.589 -6.362,-13.766 -14.181,-13.766 -7.818,0 -14.18,6.177 -14.18,13.766 0,3.011 1.013,5.807 2.722,8.081 l -3.26,3.165 c -2.533,-3.103 -4.021,-7.006 -4.021,-11.246 0,-10.017 8.42,-18.19 18.739,-18.19 10.32,0 18.739,8.173 18.739,18.19 0,4.24 -1.519,8.143 -4.02,11.246 z"
               style="fill:#002843;fill-opacity:1;fill-rule:nonzero;stroke:none"
               id="path336" />
          </g>
        </g>
      </g>
    </g>
  </g>
</svg>
