<?xml version="1.0" encoding="UTF-8" standalone="no"?>
<svg
   xmlns:dc="http://purl.org/dc/elements/1.1/"
   xmlns:cc="http://creativecommons.org/ns#"
   xmlns:rdf="http://www.w3.org/1999/02/22-rdf-syntax-ns#"
   xmlns:svg="http://www.w3.org/2000/svg"
   xmlns="http://www.w3.org/2000/svg"
   xmlns:sodipodi="http://sodipodi.sourceforge.net/DTD/sodipodi-0.dtd"
   xmlns:inkscape="http://www.inkscape.org/namespaces/inkscape"
   width="529.16669mm"
   height="162.22728mm"
   viewBox="0 0 529.16669 162.22728"
   version="1.1"
   id="svg1763"
   inkscape:version="1.0.1 (3bc2e813f5, 2020-09-07)"
   sodipodi:docname="logo_full_white_and_dark_blue.svg">
  <defs
     id="defs1757">
    <clipPath
       clipPathUnits="userSpaceOnUse"
       id="clipPath666">
      <path
         d="M 0,0 H 792 V 612 H 0 Z"
         id="path664" />
    </clipPath>
    <clipPath
       clipPathUnits="userSpaceOnUse"
       id="clipPath694">
      <path
         d="M 0,0 H 792 V 612 H 0 Z"
         id="path692" />
    </clipPath>
    <clipPath
       clipPathUnits="userSpaceOnUse"
       id="clipPath718">
      <path
         d="M 0,0 H 792 V 612 H 0 Z"
         id="path716" />
    </clipPath>
    <clipPath
       clipPathUnits="userSpaceOnUse"
       id="clipPath742">
      <path
         d="M 0,0 H 792 V 612 H 0 Z"
         id="path740" />
    </clipPath>
    <clipPath
       clipPathUnits="userSpaceOnUse"
       id="clipPath762">
      <path
         d="M 0,0 H 792 V 612 H 0 Z"
         id="path760" />
    </clipPath>
    <clipPath
       clipPathUnits="userSpaceOnUse"
       id="clipPath782">
      <path
         d="M 0,0 H 792 V 612 H 0 Z"
         id="path780" />
    </clipPath>
    <clipPath
       clipPathUnits="userSpaceOnUse"
       id="clipPath802">
      <path
         d="M 0,0 H 792 V 612 H 0 Z"
         id="path800" />
    </clipPath>
  </defs>
  <sodipodi:namedview
     id="base"
     pagecolor="#ffffff"
     bordercolor="#666666"
     borderopacity="1.0"
     inkscape:pageopacity="0.0"
     inkscape:pageshadow="2"
     inkscape:zoom="0.53866509"
     inkscape:cx="-317.23736"
     inkscape:cy="583.061"
     inkscape:document-units="mm"
     inkscape:current-layer="layer1"
     inkscape:document-rotation="0"
     showgrid="false"
     inkscape:window-width="1920"
     inkscape:window-height="1016"
     inkscape:window-x="0"
     inkscape:window-y="0"
     inkscape:window-maximized="1" />
  <metadata
     id="metadata1760">
    <rdf:RDF>
      <cc:Work
         rdf:about="">
        <dc:format>image/svg+xml</dc:format>
        <dc:type
           rdf:resource="http://purl.org/dc/dcmitype/StillImage" />
        <dc:title></dc:title>
      </cc:Work>
    </rdf:RDF>
  </metadata>
  <g
     inkscape:label="Layer 1"
     inkscape:groupmode="layer"
     id="layer1"
     transform="translate(-232.47952,30.968584)">
    <g
       id="g660"
       transform="matrix(3.4119651,0,0,-3.4119651,-842.48773,1162.6061)">
      <g
         id="g662"
         clip-path="url(#clipPath666)">
        <g
           id="g668"
           transform="translate(374.3298,319.2305)">
          <path
             d="m 0,0 c 0,-5.67 -4.432,-10.128 -10.102,-10.128 -5.669,0 -10.102,4.458 -10.102,10.128 0,5.695 4.433,10.23 10.102,10.23 C -4.432,10.23 0,5.695 0,0 m -3.531,0 c 0,3.942 -2.886,6.932 -6.571,6.932 -3.685,0 -6.572,-2.99 -6.572,-6.932 0,-3.943 2.887,-6.855 6.572,-6.855 3.685,0 6.571,2.912 6.571,6.855"
             style="fill:#ffffff;fill-opacity:1;fill-rule:nonzero;stroke:none"
             id="path670" />
        </g>
        <g
           id="g672"
           transform="translate(389.5759,315.9058)">
          <path
             d="m 0,0 c 0,-4.046 -3.041,-6.804 -6.314,-6.804 -1.752,0 -3.17,0.517 -4.252,1.392 v -8.22 h -3.402 V 6.443 h 3.403 V 5.412 c 1.082,0.902 2.499,1.417 4.252,1.417 C -3.041,6.829 0,4.046 0,0 m -3.299,0 c 0,2.371 -1.546,3.866 -3.607,3.866 -1.83,0 -3.66,-1.495 -3.66,-3.866 0,-2.371 1.83,-3.838 3.66,-3.838 2.061,-0.002 3.607,1.467 3.607,3.838"
             style="fill:#ffffff;fill-opacity:1;fill-rule:nonzero;stroke:none"
             id="path674" />
        </g>
        <g
           id="g676"
           transform="translate(403.8201,315.0044)">
          <path
             d="m 0,0 h -9.793 c 0.335,-1.856 1.649,-2.99 3.221,-2.99 1.006,0 2.268,0.129 3.196,1.701 l 3.041,-0.644 c -1.134,-2.68 -3.427,-3.969 -6.237,-3.969 -3.634,0 -6.597,2.758 -6.597,6.804 0,4.045 2.963,6.827 6.648,6.827 3.428,0 6.391,-2.654 6.521,-6.571 z m -9.69,2.396 h 6.212 c -0.438,1.65 -1.675,2.371 -3.041,2.371 -1.29,0 -2.758,-0.773 -3.171,-2.371"
             style="fill:#ffffff;fill-opacity:1;fill-rule:nonzero;stroke:none"
             id="path678" />
        </g>
        <g
           id="g680"
           transform="translate(417.7,317.3232)">
          <path
             d="m 0,0 v -7.834 h -3.401 v 7.113 c 0,1.803 -1.032,3.014 -2.603,3.014 -1.933,0 -3.196,-1.288 -3.196,-4.432 v -5.695 h -3.402 V 5.025 h 3.401 V 3.866 c 1.005,1.005 2.345,1.546 4.046,1.546 C -2.062,5.412 0,3.195 0,0"
             style="fill:#ffffff;fill-opacity:1;fill-rule:nonzero;stroke:none"
             id="path682" />
        </g>
      </g>
    </g>
    <g
       id="g684"
       transform="matrix(3.4119651,0,0,-3.4119651,654.07041,106.64112)">
      <path
         d="M 0,0 H -2.731 L -7.524,12.705 -12.344,0 h -2.706 l -6.417,19.586 h 3.659 l 4.304,-12.937 4.922,12.937 h 2.088 L -1.572,6.649 2.731,19.586 h 3.685 z"
         style="fill:#ffffff;fill-opacity:1;fill-rule:nonzero;stroke:none"
         id="path686" />
    </g>
    <g
       id="g688"
       transform="matrix(3.4119651,0,0,-3.4119651,-842.48773,1162.6061)">
      <g
         id="g690"
         clip-path="url(#clipPath694)">
        <g
           id="g696"
           transform="translate(453.4075,322.4258)">
          <path
             d="m 0,0 -0.18,-3.273 h -0.748 c -3.144,0 -4.587,-1.933 -4.587,-5.515 v -4.149 h -3.402 v 12.86 h 3.402 v -2.242 c 0.953,1.494 2.448,2.422 4.613,2.422 0.335,0 0.593,0 0.902,-0.103"
             style="fill:#ffffff;fill-opacity:1;fill-rule:nonzero;stroke:none"
             id="path698" />
        </g>
        <g
           id="g700"
           transform="translate(460.6418,314.2305)">
          <path
             d="m 0,0 c 0,-1.262 0.593,-1.958 1.624,-1.958 0.592,0 1.469,0.258 2.14,0.618 l 0.98,-2.834 c -1.34,-0.722 -2.268,-0.954 -3.35,-0.954 -3.067,0 -4.794,1.753 -4.794,4.871 V 5.335 H -6.158 V 8.118 H -3.4 v 4.665 l 3.401,1.03 V 8.118 H 4.975 V 5.335 H 0 Z"
             style="fill:#ffffff;fill-opacity:1;fill-rule:nonzero;stroke:none"
             id="path702" />
        </g>
      </g>
    </g>
    <g
       id="g704"
       transform="matrix(3.4119651,0,0,-3.4119651,477.03823,131.01312)">
      <path
         d="M 0,0 H -0.766 L -1.484,1.974 -2.207,0 h -0.762 l -1.174,3.64 h 0.977 l 0.609,-1.964 0.762,1.964 h 0.622 L -0.416,1.676 0.197,3.64 h 0.978 z"
         style="fill:#002843;fill-opacity:1;fill-rule:nonzero;stroke:none"
         id="path706" />
    </g>
    <g
       id="g708"
       transform="matrix(3.4119651,0,0,-3.4119651,493.48497,128.31767)">
      <path
         d="M 0,0 H 0.752 V -0.79 H -1.672 V 0 H -0.92 V 2.055 H -1.672 V 2.85 H 0.752 V 2.055 H 0 Z"
         style="fill:#002843;fill-opacity:1;fill-rule:nonzero;stroke:none"
         id="path710" />
    </g>
    <g
       id="g712"
       transform="matrix(3.4119651,0,0,-3.4119651,-842.48773,1162.6061)">
      <g
         id="g714"
         clip-path="url(#clipPath718)">
        <g
           id="g720"
           transform="translate(397.0588,302.3457)">
          <path
             d="M 0,0 -0.671,0.79 H -1.389 V 0 h -0.919 v 3.64 h 1.696 C 0.346,3.64 0.925,3.075 0.925,2.232 0.925,1.69 0.681,1.255 0.259,1.01 L 1.155,0 Z m -0.647,1.581 c 0.384,0 0.699,0.258 0.699,0.651 0,0.383 -0.315,0.62 -0.699,0.62 H -1.389 V 1.583 Z"
             style="fill:#002843;fill-opacity:1;fill-rule:nonzero;stroke:none"
             id="path722" />
        </g>
      </g>
    </g>
    <g
       id="g724"
       transform="matrix(3.4119651,0,0,-3.4119651,532.16031,131.01312)">
      <path
         d="m 0,0 h -2.778 v 3.64 h 2.749 V 2.85 H -1.858 V 2.227 h 1.8 v -0.79 h -1.8 V 0.79 h 1.859 z"
         style="fill:#002843;fill-opacity:1;fill-rule:nonzero;stroke:none"
         id="path726" />
    </g>
    <g
       id="g728"
       transform="matrix(3.4119651,0,0,-3.4119651,549.66398,131.01312)">
      <path
         d="m 0,0 h -2.687 v 3.64 h 0.919 V 0.79 H 0 Z"
         style="fill:#002843;fill-opacity:1;fill-rule:nonzero;stroke:none"
         id="path730" />
    </g>
    <g
       id="g732"
       transform="matrix(3.4119651,0,0,-3.4119651,567.43449,131.01312)">
      <path
         d="m 0,0 h -2.778 v 3.64 h 2.749 V 2.85 h -1.83 V 2.227 h 1.801 V 1.437 H -1.859 V 0.79 H 0 Z"
         style="fill:#002843;fill-opacity:1;fill-rule:nonzero;stroke:none"
         id="path734" />
    </g>
    <g
       id="g736"
       transform="matrix(3.4119651,0,0,-3.4119651,-842.48773,1162.6061)">
      <g
         id="g738"
         clip-path="url(#clipPath742)">
        <g
           id="g744"
           transform="translate(418.5935,305.0088)">
          <path
             d="m 0,0 -0.9,-0.182 c -0.077,0.369 -0.326,0.474 -0.542,0.474 -0.215,0 -0.393,-0.109 -0.393,-0.312 0,-0.143 0.077,-0.234 0.235,-0.282 l 0.709,-0.225 c 0.599,-0.197 0.925,-0.474 0.925,-1.044 0,-0.82 -0.719,-1.164 -1.433,-1.164 -0.79,0 -1.432,0.416 -1.523,1.11 l 0.943,0.192 c 0.077,-0.359 0.292,-0.512 0.609,-0.512 0.268,0 0.431,0.124 0.431,0.316 0,0.144 -0.077,0.244 -0.278,0.297 l -0.675,0.196 c -0.551,0.158 -0.925,0.441 -0.925,1.031 0,0.742 0.584,1.149 1.38,1.149 C -0.68,1.044 -0.12,0.681 0,0"
             style="fill:#002843;fill-opacity:1;fill-rule:nonzero;stroke:none"
             id="path746" />
        </g>
        <g
           id="g748"
           transform="translate(423.4065,305.0088)">
          <path
             d="m 0,0 -0.901,-0.182 c -0.076,0.369 -0.325,0.474 -0.541,0.474 -0.215,0 -0.393,-0.109 -0.393,-0.312 0,-0.143 0.077,-0.234 0.235,-0.282 l 0.709,-0.225 c 0.599,-0.197 0.924,-0.474 0.924,-1.044 0,-0.82 -0.718,-1.164 -1.432,-1.164 -0.79,0 -1.432,0.416 -1.523,1.11 l 0.943,0.192 c 0.077,-0.359 0.292,-0.512 0.609,-0.512 0.268,0 0.431,0.124 0.431,0.316 0,0.144 -0.077,0.244 -0.278,0.297 l -0.675,0.197 c -0.551,0.158 -0.925,0.441 -0.925,1.03 0,0.743 0.583,1.15 1.38,1.15 C -0.68,1.044 -0.12,0.681 0,0"
             style="fill:#002843;fill-opacity:1;fill-rule:nonzero;stroke:none"
             id="path750" />
        </g>
      </g>
    </g>
    <g
       id="g752"
       transform="matrix(3.4119651,0,0,-3.4119651,624.88486,123.41432)">
      <path
         d="M 0,0 H 1.71 V -0.79 H 0 v -1.437 h -0.92 v 3.64 H 1.835 V 0.623 H 0 Z"
         style="fill:#002843;fill-opacity:1;fill-rule:nonzero;stroke:none"
         id="path754" />
    </g>
    <g
       id="g756"
       transform="matrix(3.4119651,0,0,-3.4119651,-842.48773,1162.6061)">
      <g
         id="g758"
         clip-path="url(#clipPath762)">
        <g
           id="g764"
           transform="translate(436.6531,302.3457)">
          <path
             d="M 0,0 -0.67,0.79 H -1.389 V 0 h -0.92 v 3.64 h 1.696 C 0.345,3.64 0.925,3.075 0.925,2.232 0.925,1.69 0.68,1.255 0.259,1.01 L 1.155,0 Z m -0.647,1.581 c 0.384,0 0.7,0.258 0.7,0.651 0,0.383 -0.316,0.62 -0.7,0.62 H -1.389 V 1.583 Z"
             style="fill:#002843;fill-opacity:1;fill-rule:nonzero;stroke:none"
             id="path766" />
        </g>
      </g>
    </g>
    <g
       id="g768"
       transform="matrix(3.4119651,0,0,-3.4119651,667.25595,131.01312)">
      <path
         d="m 0,0 h -2.779 v 3.64 h 2.75 V 2.85 h -1.83 V 2.227 h 1.801 V 1.437 H -1.859 V 0.79 H 0 Z"
         style="fill:#002843;fill-opacity:1;fill-rule:nonzero;stroke:none"
         id="path770" />
    </g>
    <g
       id="g772"
       transform="matrix(3.4119651,0,0,-3.4119651,685.06989,131.01312)">
      <path
         d="m 0,0 h -2.778 v 3.64 h 2.749 V 2.85 h -1.83 V 2.227 h 1.802 V 1.437 H -1.859 V 0.79 h 1.86 z"
         style="fill:#002843;fill-opacity:1;fill-rule:nonzero;stroke:none"
         id="path774" />
    </g>
    <g
       id="g776"
       transform="matrix(3.4119651,0,0,-3.4119651,-842.48773,1162.6061)">
      <g
         id="g778"
         clip-path="url(#clipPath782)">
        <g
           id="g784"
           transform="translate(451.7729,305.9858)">
          <path
             d="M 0,0 C 1.159,0 1.926,-0.729 1.926,-1.82 1.926,-2.911 1.16,-3.64 0,-3.64 H -1.624 V 0 Z m -0.01,-2.85 c 0.628,0 1.011,0.412 1.011,1.03 0,0.618 -0.383,1.03 -1.011,1.03 h -0.692 v -2.06 z"
             style="fill:#002843;fill-opacity:1;fill-rule:nonzero;stroke:none"
             id="path786" />
        </g>
        <g
           id="g788"
           transform="translate(459.4919,304.1611)">
          <path
             d="m 0,0 c 0,-1.063 -0.872,-1.887 -1.945,-1.887 -1.073,0 -1.95,0.824 -1.95,1.887 0,1.063 0.872,1.892 1.95,1.892 C -0.867,1.892 0,1.059 0,0 m -0.925,0 c 0,0.599 -0.45,1.063 -1.02,1.063 -0.571,0 -1.021,-0.464 -1.021,-1.063 0,-0.599 0.45,-1.063 1.021,-1.063 0.57,0 1.02,0.459 1.02,1.063"
             style="fill:#002843;fill-opacity:1;fill-rule:nonzero;stroke:none"
             id="path790" />
        </g>
      </g>
    </g>
    <g
       id="g792"
       transform="matrix(3.4119651,0,0,-3.4119651,746.17684,131.01312)">
      <path
         d="M 0,0 H -0.9 V 1.729 L -1.974,0.252 h -0.277 l -1.073,1.476 v -1.729 h -0.901 v 3.64 h 0.589 l 1.523,-2.141 1.524,2.141 H 0 Z"
         style="fill:#002843;fill-opacity:1;fill-rule:nonzero;stroke:none"
         id="path794" />
    </g>
    <g
       id="g796"
       transform="matrix(3.4119651,0,0,-3.4119651,-842.48773,1162.6061)">
      <g
         id="g798"
         clip-path="url(#clipPath802)">
        <g
           id="g804"
           transform="translate(468.708,328.375)">
          <path
             d="M 0,0 -0.948,1.029 H -1.339 V 0 h -0.436 v 2.436 h 0.91 c 0.511,0 0.82,-0.292 0.82,-0.703 C -0.037,1.454 -0.207,1.2 -0.468,1.1 L 0.545,0 Z m -0.865,1.423 c 0.255,0 0.388,0.135 0.388,0.31 0,0.176 -0.135,0.307 -0.388,0.307 H -1.339 V 1.422 Z"
             style="fill:#ffffff;fill-opacity:1;fill-rule:nonzero;stroke:none"
             id="path806" />
        </g>
        <g
           id="g808"
           transform="translate(467.8833,327.1943)">
          <path
             d="m 0,0 c -1.252,0 -2.267,1.014 -2.268,2.266 0,1.252 1.015,2.268 2.267,2.268 1.252,0 2.267,-1.015 2.267,-2.267 v 0 C 2.265,1.016 1.251,0.001 0,0 m 0,4.212 c -1.074,0 -1.946,-0.871 -1.946,-1.945 0,-1.075 0.872,-1.946 1.946,-1.946 1.074,0 1.946,0.871 1.946,1.946 C 1.945,3.341 1.074,4.211 0,4.213 Z"
             style="fill:#ffffff;fill-opacity:1;fill-rule:nonzero;stroke:none"
             id="path810" />
        </g>
        <g
           id="g812"
           transform="translate(333.3135,326.9556)">
          <path
             d="m 0,0 c -1.641,0 -2.972,-1.331 -2.972,-2.972 0,-1.641 1.331,-2.972 2.972,-2.972 1.641,0 2.972,1.331 2.972,2.972 C 2.969,-1.332 1.64,-0.003 0,0"
             style="fill:#ffffff;fill-opacity:1;fill-rule:nonzero;stroke:none"
             id="path814" />
        </g>
        <g
           id="g816"
           transform="translate(315.0581,342.2393)">
          <path
             d="m 0,0 3.093,-3.093 c 3.882,3.881 9.248,6.276 15.162,6.276 5.914,0 11.281,-2.396 15.163,-6.276 L 36.511,0 C 31.841,4.67 25.382,7.581 18.255,7.581 11.129,7.581 4.67,4.67 0,0"
             style="fill:#ffffff;fill-opacity:1;fill-rule:nonzero;stroke:none"
             id="path818" />
        </g>
        <g
           id="g820"
           transform="translate(320.6377,336.6592)">
          <path
             d="m 0,0 3.093,-3.093 c 2.457,2.456 5.853,3.973 9.582,3.973 3.728,0 7.127,-1.517 9.584,-3.973 L 25.352,0 C 22.107,3.245 17.619,5.278 12.676,5.278 7.733,5.278 3.245,3.246 0,0"
             style="fill:#ffffff;fill-opacity:1;fill-rule:nonzero;stroke:none"
             id="path822" />
        </g>
        <g
           id="g824"
           transform="translate(326.1873,331.1094)">
          <path
             d="m 0,0 3.093,-3.093 c 2.229,2.224 5.838,2.224 8.066,0 L 14.252,0 C 12.364,1.89 9.799,2.949 7.126,2.941 4.367,2.941 1.849,1.819 0,0"
             style="fill:#ffffff;fill-opacity:1;fill-rule:nonzero;stroke:none"
             id="path826" />
        </g>
        <g
           id="g828"
           transform="translate(344.291,331.959)">
          <path
             d="m 0,0 c 1.637,-2.244 2.608,-5.003 2.608,-7.975 0,-7.49 -6.095,-13.586 -13.586,-13.586 -7.49,0 -13.585,6.096 -13.585,13.586 0,2.972 0.97,5.731 2.608,7.975 l -3.123,3.124 c -2.426,-3.063 -3.852,-6.915 -3.852,-11.099 0,-9.886 8.067,-17.952 17.952,-17.952 9.886,0 17.953,8.066 17.953,17.952 0,4.184 -1.456,8.036 -3.851,11.099 z"
             style="fill:#002843;fill-opacity:1;fill-rule:nonzero;stroke:none"
             id="path830" />
        </g>
      </g>
    </g>
  </g>
</svg>
